# xmcd
#
# Track frame offsets:
#	150
#	16680
#	36535
#	56492
#	75790
#	119260
#	153985
#
# Disc length: 2402 seconds
# Revision: 0
# Processed by: cddbd v1.5.2PL0 Copyright (c) Steve Scherf et al.
# Submitted via: dBpowerAMP V12.0
#
DISCID=45096007
DTITLE=Michelle Gayle - Do You Know
DYEAR=1997
DGENRE=R&B
TTITLE0=Do You Know [Radio Edit]
TTITLE1=Do You Know [Ignorants ‘Spoonin’ Mix]
TTITLE2=Do You Know [Linslee Remix]
TTITLE3=Do You Know [Best Kept Secret Remix]
TTITLE4=Do You Know [Tony De Vit Mix]
TTITLE5=Do You Know [K-Klass Louder Vocal Mix]
TTITLE6=Do You Know [Full Intention Vocal Mix]
EXTD=
EXTT0=
EXTT1=
EXTT2=
EXTT3=
EXTT4=
EXTT5=
EXTT6=
PLAYORDER=
